<svg width="156" height="26" viewBox="0 0 156 26" fill="none" xmlns="http://www.w3.org/2000/svg">
<path d="M12.7937 1.6803L16.2369 9.01513L23.9366 10.1985L18.3652 15.9047L19.68 23.966L12.7937 20.158L5.90745 23.966L7.22231 15.9047L1.65088 10.1985L9.35059 9.01513L12.7937 1.6803Z" fill="#F2994A"/>
<path d="M45.2937 1.6803L48.7369 9.01513L56.4366 10.1985L50.8652 15.9047L52.18 23.966L45.2937 20.158L38.4075 23.966L39.7223 15.9047L34.1509 10.1985L41.8506 9.01513L45.2937 1.6803Z" fill="#F2994A"/>
<path d="M77.7937 1.6803L81.2369 9.01513L88.9366 10.1985L83.3652 15.9047L84.68 23.966L77.7937 20.158L70.9075 23.966L72.2223 15.9047L66.6509 10.1985L74.3506 9.01513L77.7937 1.6803Z" fill="#F2994A"/>
<path d="M110.294 1.6803L113.737 9.01513L121.437 10.1985L115.865 15.9047L117.18 23.966L110.294 20.158L103.407 23.966L104.722 15.9047L99.1509 10.1985L106.851 9.01513L110.294 1.6803Z" fill="#F2994A"/>
<path d="M142.794 1.6803L146.237 9.01513L153.937 10.1985L148.365 15.9047L149.68 23.966L142.794 20.158L135.907 23.966L137.222 15.9047L131.651 10.1985L139.351 9.01513L142.794 1.6803Z" fill="white" stroke="#F2994A" stroke-linecap="round" stroke-linejoin="round"/>
</svg>
