<svg width="20" height="20" viewBox="0 0 20 20" fill="none" xmlns="http://www.w3.org/2000/svg">
<path fillRule="evenodd" clipRule="evenodd" d="M14.5791 11.6503C14.0241 13.4353 12.6408 14.6712 10.8 14.9437C7.9908 15.3595 5.23247 13.2295 5.01413 10.3962C4.78747 7.45616 7.10663 5.00033 10.0008 5.00033C10.67 5.00033 11.3083 5.13199 11.8916 5.37033C12.0941 5.45283 12.3233 5.38199 12.4266 5.19033L13.6225 2.98449C13.7358 2.77366 13.6541 2.50199 13.4358 2.40366C12.3883 1.93033 11.2266 1.66699 10.0033 1.66699C5.3183 1.66699 1.5358 5.53033 1.66997 10.2445C1.79247 14.5453 5.34247 18.1437 9.63997 18.3262C14.2616 18.5212 18.095 14.9545 18.3275 10.4353C18.3366 10.2703 18.3333 9.30949 18.33 8.74616C18.3291 8.51616 18.1425 8.33366 17.9133 8.33366H10.4141C10.1841 8.33366 9.99747 8.51949 9.99747 8.75032V11.2337C9.99747 11.4628 10.1841 11.6503 10.4141 11.6503H14.5791Z" fill="white"/>
</svg>
