<svg width="80" height="80" viewBox="0 0 80 80" fill="none" xmlns="http://www.w3.org/2000/svg">
<path d="M10.5664 24.8L39.9997 41.8333L69.233 24.8999" stroke="#2DD06E" stroke-width="2" stroke-linecap="round" stroke-linejoin="round"/>
<path d="M40 72.0333V41.7999" stroke="#2DD06E" stroke-width="2" stroke-linecap="round" stroke-linejoin="round"/>
<path d="M7.9668 30.5667C7.9668 25.9667 11.2667 20.3668 15.3001 18.1334L33.1001 8.23333C36.9001 6.13333 43.1334 6.13333 46.9334 8.23333L64.7335 18.1334C68.7668 20.3668 72.0667 25.9667 72.0667 30.5667V49.4001C72.0667 54.0001 68.7668 59.6 64.7335 61.8334L46.9334 71.7335C43.1334 73.8335 36.9001 73.8335 33.1001 71.7335L15.3001 61.8334C11.2667 59.6 7.9668 54.0001 7.9668 49.4001V46.6668" stroke="#2DD06E" stroke-width="2" stroke-linecap="round" stroke-linejoin="round"/>
<path d="M56.6665 44.1333V31.9334L36.4331 20.2334L32.9332 18.2332L25.0332 13.6666" stroke="#2DD06E" stroke-width="2" stroke-linecap="round" stroke-linejoin="round"/>
</svg>
