<svg width="20" height="17" viewBox="0 0 20 17" fill="none" xmlns="http://www.w3.org/2000/svg">
<g opacity="0.8">
<path d="M19.1673 0.849978C18.3693 1.42413 17.4857 1.86327 16.5507 2.15048C16.0488 1.56186 15.3818 1.14467 14.6398 0.955315C13.8979 0.765964 13.1169 0.813594 12.4024 1.09176C11.6879 1.36993 11.0744 1.86522 10.6448 2.51064C10.2153 3.15606 9.9904 3.92046 10.0007 4.70048V5.55048C8.53618 5.58921 7.08505 5.25792 5.77649 4.58611C4.46794 3.9143 3.34258 2.92282 2.50065 1.69998C2.50065 1.69998 -0.832682 9.34998 6.66732 12.75C4.95109 13.9382 2.90661 14.5341 0.833984 14.45C8.33398 18.7 17.5006 14.45 17.5006 4.67498C17.4999 4.43821 17.4776 4.20203 17.434 3.96948C18.2845 3.11395 18.8847 2.03378 19.1673 0.849978V0.849978Z" stroke="white" stroke-width="1.5" stroke-linecap="round" stroke-linejoin="round"/>
</g>
</svg>
