<svg width="21" height="20" viewBox="0 0 21 20" fill="none" xmlns="http://www.w3.org/2000/svg">
<path d="M1.67006 1.02563H18.4087C18.5941 1.09067 18.7622 1.19728 18.9001 1.33731C19.0379 1.47734 19.1419 1.64707 19.2041 1.83349C19.2662 2.01992 19.2848 2.21809 19.2586 2.41284C19.2323 2.60758 19.1618 2.79373 19.0525 2.95701L12.6145 10.0387V19.0518L7.46419 15.1891V10.0387L1.02626 2.95701C0.916936 2.79373 0.846434 2.60758 0.820157 2.41284C0.793881 2.21809 0.812527 2.01992 0.874668 1.83349C0.93681 1.64707 1.0408 1.47734 1.17866 1.33731C1.31653 1.19728 1.48462 1.09067 1.67006 1.02563Z" stroke="#303030" stroke-width="1.5" stroke-linecap="round" stroke-linejoin="round"/>
</svg>
