<svg width="20" height="20" viewBox="0 0 20 20" fill="none" xmlns="http://www.w3.org/2000/svg">
<g opacity="0.8">
<path d="M14.5446 0.909058H5.45366C2.94327 0.909058 0.908203 2.94413 0.908203 5.45451V14.5454C0.908203 17.0558 2.94327 19.0909 5.45366 19.0909H14.5446C17.055 19.0909 19.09 17.0558 19.09 14.5454V5.45451C19.09 2.94413 17.055 0.909058 14.5446 0.909058Z" stroke="white" stroke-width="1.5" stroke-linecap="round" stroke-linejoin="round"/>
<path d="M13.6357 9.42731C13.7479 10.1839 13.6187 10.9566 13.2664 11.6355C12.9142 12.3144 12.3568 12.865 11.6736 13.2088C10.9904 13.5527 10.2161 13.6724 9.461 13.5509C8.70586 13.4294 8.00825 13.0728 7.46741 12.532C6.92658 11.9912 6.57004 11.2936 6.44853 10.5384C6.32702 9.78327 6.44671 9.00904 6.79058 8.32584C7.13446 7.64264 7.685 7.08526 8.36391 6.73299C9.04282 6.38072 9.81552 6.25149 10.5721 6.36368C11.3439 6.47812 12.0583 6.83774 12.61 7.38941C13.1617 7.94109 13.5213 8.65557 13.6357 9.42731Z" stroke="white" stroke-width="1.5" stroke-linecap="round" stroke-linejoin="round"/>
<path d="M15 5H15.01" stroke="white" stroke-width="1.5" stroke-linecap="round" stroke-linejoin="round"/>
</g>
</svg>
