<svg width="18" height="20" viewBox="0 0 18 20" fill="none" xmlns="http://www.w3.org/2000/svg">
<path d="M0.900391 4.54547H2.70039H17.1004" stroke="#828282" stroke-width="1.5" stroke-linecap="round" stroke-linejoin="round"/>
<path d="M5.4002 4.54548V2.7273C5.4002 2.24509 5.58984 1.78263 5.9274 1.44165C6.26497 1.10068 6.72281 0.909119 7.2002 0.909119H10.8002C11.2776 0.909119 11.7354 1.10068 12.073 1.44165C12.4106 1.78263 12.6002 2.24509 12.6002 2.7273V4.54548M15.3002 4.54548V17.2728C15.3002 17.755 15.1106 18.2174 14.773 18.5584C14.4354 18.8994 13.9776 19.0909 13.5002 19.0909H4.5002C4.02281 19.0909 3.56497 18.8994 3.2274 18.5584C2.88984 18.2174 2.7002 17.755 2.7002 17.2728V4.54548H15.3002Z" stroke="#828282" stroke-width="1.5" stroke-linecap="round" stroke-linejoin="round"/>
<path d="M7.2002 9.09088V14.5454" stroke="#828282" stroke-width="1.5" stroke-linecap="round" stroke-linejoin="round"/>
<path d="M10.7998 9.09088V14.5454" stroke="#828282" stroke-width="1.5" stroke-linecap="round" stroke-linejoin="round"/>
</svg>
