<svg width="20" height="15" viewBox="0 0 20 15" fill="none" xmlns="http://www.w3.org/2000/svg">
<g opacity="0.8">
<path d="M18.7825 2.85004C18.6835 2.45455 18.4819 2.09218 18.1981 1.79955C17.9142 1.50691 17.5581 1.29436 17.1658 1.18337C15.7325 0.833374 9.99917 0.833374 9.99917 0.833374C9.99917 0.833374 4.26584 0.833374 2.83251 1.21671C2.44021 1.32769 2.08416 1.54024 1.8003 1.83288C1.51644 2.12552 1.31483 2.48788 1.21584 2.88337C0.95352 4.338 0.825204 5.81363 0.832508 7.29171C0.823157 8.78091 0.951481 10.2678 1.21584 11.7334C1.32497 12.1166 1.5311 12.4652 1.81429 12.7454C2.09749 13.0257 2.44819 13.2282 2.83251 13.3334C4.26584 13.7167 9.99917 13.7167 9.99917 13.7167C9.99917 13.7167 15.7325 13.7167 17.1658 13.3334C17.5581 13.2224 17.9142 13.0098 18.1981 12.7172C18.4819 12.4246 18.6835 12.0622 18.7825 11.6667C19.0428 10.223 19.1711 8.75865 19.1658 7.29171C19.1752 5.8025 19.0469 4.31562 18.7825 2.85004V2.85004Z" stroke="white" stroke-width="1.5" stroke-linecap="round" stroke-linejoin="round"/>
<path d="M8.125 10.0167L12.9167 7.29165L8.125 4.56665V10.0167Z" stroke="white" stroke-width="1.5" stroke-linecap="round" stroke-linejoin="round"/>
</g>
</svg>
