<svg width="100" height="100" viewBox="0 0 100 100" fill="none" xmlns="http://www.w3.org/2000/svg">
<path d="M8.3335 8.33325H15.5835C20.0835 8.33325 23.6252 12.2083 23.2502 16.6666L19.7918 58.1666C19.2085 64.9582 24.5835 70.7915 31.4168 70.7915H75.7918C81.7918 70.7915 87.0418 65.8749 87.5002 59.9166L89.7501 28.6666C90.2501 21.7499 85.0001 16.1249 78.0418 16.1249H24.2502" stroke="#BDBDBD" stroke-width="2" stroke-miterlimit="10" stroke-linecap="round" stroke-linejoin="round"/>
<path d="M67.7083 91.6667C70.5848 91.6667 72.9167 89.3348 72.9167 86.4583C72.9167 83.5818 70.5848 81.25 67.7083 81.25C64.8318 81.25 62.5 83.5818 62.5 86.4583C62.5 89.3348 64.8318 91.6667 67.7083 91.6667Z" stroke="#BDBDBD" stroke-width="2" stroke-miterlimit="10" stroke-linecap="round" stroke-linejoin="round"/>
<path d="M34.3748 91.6667C37.2513 91.6667 39.5832 89.3348 39.5832 86.4583C39.5832 83.5818 37.2513 81.25 34.3748 81.25C31.4984 81.25 29.1665 83.5818 29.1665 86.4583C29.1665 89.3348 31.4984 91.6667 34.3748 91.6667Z" stroke="#BDBDBD" stroke-width="1.5" stroke-miterlimit="10" stroke-linecap="round" stroke-linejoin="round"/>
<path d="M37.5 33.3333H87.5" stroke="#BDBDBD" stroke-width="1.5" stroke-miterlimit="10" stroke-linecap="round" stroke-linejoin="round"/>
</svg>
