<svg width="80" height="80" viewBox="0 0 80 80" fill="none" xmlns="http://www.w3.org/2000/svg">
<path d="M54.166 11.4667C59.7327 15.7333 63.3327 22.4333 63.3327 30C63.3327 34.8333 61.8993 39.2667 59.4327 42.9667C55.8327 48.3 50.1327 52.0667 43.4993 53.0333C42.366 53.2333 41.1993 53.3333 39.9993 53.3333C38.7993 53.3333 37.6327 53.2333 36.4993 53.0333C29.866 52.0667 24.166 48.3 20.566 42.9667C18.0993 39.2667 16.666 34.8333 16.666 30C16.666 17.1 27.0993 6.66666 39.9993 6.66666" stroke="#2DD06E" stroke-width="2" stroke-linecap="round" stroke-linejoin="round"/>
<path d="M70.8329 61.5667L65.3329 62.8666C64.0996 63.1666 63.1329 64.1 62.8663 65.3334L61.6996 70.2334C61.0663 72.9 57.6663 73.7001 55.8996 71.6001L39.9996 53.3334L24.0996 71.6333C22.3329 73.7333 18.9329 72.9333 18.2996 70.2666L17.1329 65.3666C16.8329 64.1333 15.8663 63.1667 14.6663 62.9L9.16628 61.6001C6.63294 61.0001 5.73294 57.8333 7.56628 56L20.5663 43C24.1663 48.3333 29.8663 52.1001 36.4996 53.0667C37.6329 53.2667 38.7996 53.3667 39.9996 53.3667C41.1996 53.3667 42.3663 53.2667 43.4996 53.0667C50.1329 52.1001 55.8329 48.3333 59.4329 43L72.4329 56C74.2663 57.8 73.3663 60.9667 70.8329 61.5667Z" stroke="#2DD06E" stroke-width="2" stroke-linecap="round" stroke-linejoin="round"/>
<path d="M41.9326 19.9333L43.8993 23.8666C44.1659 24.4 44.8659 24.9333 45.4993 25.0333L49.0659 25.6333C51.3326 26 51.8659 27.6666 50.2326 29.3L47.4659 32.0666C46.9993 32.5333 46.7326 33.4333 46.8993 34.1L47.6993 37.5333C48.3326 40.2333 46.8993 41.2999 44.4993 39.8666L41.1659 37.8999C40.5659 37.5333 39.5659 37.5333 38.9659 37.8999L35.6326 39.8666C33.2326 41.2666 31.7993 40.2333 32.4326 37.5333L33.2326 34.1C33.3659 33.4666 33.1326 32.5333 32.6659 32.0666L29.8993 29.3C28.2659 27.6666 28.7993 26.0333 31.0659 25.6333L34.6326 25.0333C35.2326 24.9333 35.9326 24.4 36.1993 23.8666L38.1659 19.9333C39.1326 17.8 40.8659 17.8 41.9326 19.9333Z" stroke="#2DD06E" stroke-width="2" stroke-linecap="round" stroke-linejoin="round"/>
</svg>
