<svg width="384" height="281" viewBox="0 0 384 281" fill="none" xmlns="http://www.w3.org/2000/svg">
<path d="M201.97 278.62H198.759L199.829 215.912H200.899L201.97 278.62Z" fill="#E6E6E6"/>
<path d="M204.502 176.375L209.676 168.389C208.142 164.156 206.369 160.012 204.368 155.978L201.022 158.677L203.671 154.588C201.147 149.625 199.16 146.498 199.16 146.498C199.16 146.498 188.783 162.829 185.317 180.121L191.956 190.369L184.606 184.44C184.344 186.454 184.209 188.483 184.203 190.514C184.203 210.993 190.899 227.595 199.16 227.595C207.421 227.595 214.117 210.993 214.117 190.514C214.117 184.165 212.679 177.523 210.696 171.379L204.502 176.375Z" fill="#E6E6E6"/>
<path d="M120.656 278.62H117.445L118.516 215.912H119.585L120.656 278.62Z" fill="#E6E6E6"/>
<path d="M124.392 176.375L129.566 168.389C128.032 164.156 126.26 160.012 124.258 155.978L120.913 158.677L123.562 154.588C121.037 149.625 119.051 146.498 119.051 146.498C119.051 146.498 108.674 162.829 105.207 180.121L111.847 190.369L104.497 184.44C104.235 186.454 104.1 188.483 104.093 190.514C104.093 210.993 110.79 227.595 119.051 227.595C127.311 227.595 134.008 210.993 134.008 190.514C134.008 184.165 132.57 177.523 130.586 171.379L124.392 176.375Z" fill="#E6E6E6"/>
<path d="M160.556 278.426H154.135L156.275 149.447H158.416L160.556 278.426Z" fill="#E6E6E6"/>
<path d="M166.138 68.1273L176.806 51.6603C173.643 42.9316 169.988 34.3882 165.861 26.0706L158.963 31.6356L164.425 23.2044C159.22 12.9701 155.124 6.52197 155.124 6.52197C155.124 6.52197 133.728 40.1965 126.58 75.8501L140.27 96.9812L125.114 84.7554C124.575 88.9087 124.297 93.0917 124.283 97.2798C124.283 139.506 138.091 173.736 155.124 173.736C172.156 173.736 185.964 139.506 185.964 97.2798C185.964 84.1894 182.999 70.4939 178.909 57.8252L166.138 68.1273Z" fill="#E6E6E6"/>
<path d="M129.382 59.145C145.734 59.145 158.99 45.9049 158.99 29.5725C158.99 13.2401 145.734 0 129.382 0C113.029 0 99.7727 13.2401 99.7727 29.5725C99.7727 45.9049 113.029 59.145 129.382 59.145Z" fill="#E6E6E6"/>
<path d="M384 278.248H0V279.216H384V278.248Z" fill="#3F3D56"/>
<path d="M345.614 126.298C345.774 126.298 345.933 126.266 346.081 126.205C346.229 126.144 346.364 126.054 346.477 125.941C346.59 125.827 346.68 125.693 346.741 125.545C346.803 125.397 346.834 125.239 346.834 125.079V112.08C346.836 111.885 346.791 111.692 346.701 111.518C346.612 111.344 346.482 111.194 346.322 111.082C346.162 110.969 345.977 110.897 345.783 110.872C345.589 110.847 345.391 110.869 345.208 110.936V96.2383C345.208 95.7049 345.102 95.1767 344.898 94.6838C344.694 94.191 344.394 93.7432 344.016 93.366C343.639 92.9888 343.19 92.6896 342.697 92.4855C342.203 92.2813 341.675 92.1763 341.14 92.1763H208.148C207.614 92.1763 207.085 92.2813 206.591 92.4855C206.098 92.6896 205.649 92.9888 205.272 93.366C204.894 93.7432 204.595 94.191 204.39 94.6838C204.186 95.1767 204.081 95.7049 204.081 96.2383V274.563C204.081 275.64 204.509 276.673 205.272 277.435C206.035 278.197 207.069 278.625 208.148 278.625H341.14C342.219 278.625 343.254 278.197 344.016 277.435C344.779 276.673 345.208 275.64 345.208 274.563V144.502C345.391 144.57 345.588 144.592 345.783 144.567C345.977 144.541 346.162 144.469 346.322 144.357C346.482 144.244 346.612 144.095 346.701 143.921C346.791 143.747 346.836 143.554 346.834 143.358V130.36C346.836 130.164 346.791 129.971 346.701 129.797C346.612 129.623 346.482 129.474 346.322 129.361C346.162 129.248 345.977 129.176 345.783 129.151C345.588 129.126 345.391 129.148 345.208 129.216V126.223C345.338 126.271 345.475 126.296 345.614 126.298Z" fill="#3F3D56"/>
<path d="M333.006 100.097C333.54 100.097 334.069 100.202 334.563 100.406C335.056 100.611 335.504 100.91 335.882 101.287C336.26 101.664 336.559 102.112 336.764 102.605C336.968 103.098 337.073 103.626 337.073 104.159V266.642C337.073 267.719 336.645 268.752 335.882 269.514C335.119 270.276 334.085 270.704 333.006 270.704H216.282C215.203 270.704 214.169 270.276 213.406 269.514C212.643 268.752 212.215 267.719 212.215 266.642V104.159C212.215 103.082 212.643 102.049 213.406 101.287C214.169 100.525 215.203 100.097 216.282 100.097H333.006Z" fill="white"/>
<path d="M274.644 97.863C275.542 97.863 276.271 97.1355 276.271 96.2381C276.271 95.3407 275.542 94.6133 274.644 94.6133C273.745 94.6133 273.017 95.3407 273.017 96.2381C273.017 97.1355 273.745 97.863 274.644 97.863Z" fill="white"/>
<path d="M322.944 121.412H222.979V131.334H322.944V121.412Z" fill="#2DD06E"/>
<path d="M322.944 144.784H222.979V148.542H322.944V144.784Z" fill="#E6E6E6"/>
<path d="M322.944 156.254H222.979V160.012H322.944V156.254Z" fill="#E6E6E6"/>
<path d="M274.631 167.87H222.979V171.628H274.631V167.87Z" fill="#E6E6E6"/>
<path d="M322.944 179.692H222.979V183.45H322.944V179.692Z" fill="#E6E6E6"/>
<path d="M322.944 191.514H222.979V195.272H322.944V191.514Z" fill="#E6E6E6"/>
<path d="M272.901 203.336H222.979V207.094H272.901V203.336Z" fill="#E6E6E6"/>
<path d="M322.944 215.158H222.979V218.916H322.944V215.158Z" fill="#E6E6E6"/>
<path d="M322.944 226.979H222.979V230.738H322.944V226.979Z" fill="#E6E6E6"/>
<path d="M323.063 241.48H291.496V251.846H323.063V241.48Z" fill="#2DD06E"/>
<path d="M115.868 158.111H115.157V134.453C115.157 130.806 113.707 127.309 111.125 124.73C108.543 122.151 105.041 120.702 101.389 120.702H50.934C49.126 120.702 47.3356 121.058 45.6652 121.749C43.9947 122.44 42.4769 123.453 41.1984 124.73C39.9199 126.007 38.9057 127.523 38.2138 129.191C37.5219 130.859 37.1658 132.648 37.1658 134.454V264.873C37.1658 266.679 37.5219 268.467 38.2138 270.135C38.9057 271.804 39.9199 273.32 41.1984 274.597C42.4769 275.874 43.9947 276.887 45.6652 277.578C47.3356 278.269 49.126 278.624 50.934 278.624H101.389C105.041 278.624 108.543 277.176 111.125 274.597C113.707 272.018 115.157 268.52 115.157 264.873V174.921H115.868V158.111Z" fill="#3F3D56"/>
<path d="M112.076 133.511V264.567C112.076 267.29 110.992 269.903 109.064 271.828C107.136 273.754 104.52 274.836 101.793 274.836H51.2412C48.5141 274.836 45.8987 273.754 43.9704 271.828C42.0421 269.903 40.9587 267.29 40.9587 264.567V133.511C40.9587 131.056 41.9352 128.701 43.6733 126.965C45.4114 125.229 47.7687 124.254 50.2268 124.254H57.364C57.0944 124.927 56.9744 125.651 57.0122 126.375C57.0499 127.099 57.2446 127.806 57.5827 128.448C57.9942 129.157 58.5771 129.751 59.278 130.176C59.979 130.602 60.7755 130.845 61.5948 130.883H91.006C91.8253 130.845 92.6219 130.602 93.3229 130.176C94.0238 129.751 94.6067 129.157 95.0182 128.448C95.3562 127.806 95.5507 127.099 95.5885 126.375C95.6262 125.651 95.5061 124.927 95.2366 124.254H102.808C105.266 124.254 107.623 125.229 109.361 126.965C111.099 128.701 112.076 131.056 112.076 133.511Z" fill="white"/>
<path d="M170.652 97.9395C170.652 97.9395 165.289 96.0264 161.841 103.679C158.393 111.331 153.03 119.748 153.03 119.748L156.095 120.513C156.095 120.513 156.861 115.157 158.776 114.392L158.01 121.278C158.01 121.278 180.995 129.313 191.338 120.513L190.955 117.835C190.955 117.835 192.487 118.218 192.487 120.513L193.636 119.365C193.636 119.365 192.487 117.07 189.039 114.009C186.776 112 185.999 108.178 185.732 105.788C185.531 103.793 184.732 101.904 183.438 100.371C181.147 97.7186 176.972 94.8999 170.652 97.9395Z" fill="#2F2E41"/>
<path d="M139.155 163.584L144.169 169.959L147.361 166.316L144.626 161.762L139.155 163.584Z" fill="#FBBEBE"/>
<path d="M137.33 261.485L135.507 271.048L140.066 273.325L143.257 271.048V261.485H137.33Z" fill="#FBBEBE"/>
<path d="M169.245 261.485L171.069 271.048L166.509 273.325L163.318 271.048V261.485H169.245Z" fill="#FBBEBE"/>
<path d="M150.552 175.423L144.169 220.958L135.051 262.396L145.993 263.762L154.655 225.056L165.597 192.271L164.229 231.432L161.95 263.762H170.156L176.083 220.048L182.637 187.547L182.466 175.423H150.552Z" fill="#2F2E41"/>
<path d="M138.698 270.137C138.698 270.137 136.418 267.405 135.051 268.771C133.683 270.137 130.491 275.602 130.491 275.602C130.491 275.602 123.197 279.7 129.124 280.61C135.051 281.521 136.874 280.61 136.874 280.155C136.874 279.7 137.786 278.334 137.786 278.334L140.066 278.789L143.257 277.878C143.257 277.878 144.625 269.488 143.257 269.813C141.889 270.137 139.154 271.503 138.698 270.137Z" fill="#2F2E41"/>
<path d="M167.877 270.137C167.877 270.137 170.156 267.405 171.524 268.771C172.892 270.137 176.083 275.602 176.083 275.602C176.083 275.602 183.378 279.7 177.451 280.61C171.524 281.521 169.7 280.61 169.7 280.155C169.7 279.7 168.789 278.334 168.789 278.334L166.509 278.789L163.318 277.878C163.318 277.878 161.95 269.488 163.318 269.813C164.685 270.137 167.421 271.503 167.877 270.137Z" fill="#2F2E41"/>
<path d="M172.208 121.463C177.244 121.463 181.327 117.386 181.327 112.356C181.327 107.326 177.244 103.249 172.208 103.249C167.173 103.249 163.09 107.326 163.09 112.356C163.09 117.386 167.173 121.463 172.208 121.463Z" fill="#FBBEBE"/>
<path d="M178.363 118.048C178.363 118.048 177.451 125.789 177.907 127.61C178.363 129.432 179.275 132.164 179.275 132.164L164.686 129.432C164.686 129.432 168.789 120.78 167.877 119.414C166.965 118.048 178.363 118.048 178.363 118.048Z" fill="#FBBEBE"/>
<path d="M179.731 128.977L164.686 125.789L156.024 178.61C159.928 177.546 164.066 177.705 167.878 179.066C174.26 181.343 182.923 179.066 182.923 179.066L181.099 129.432L179.731 128.977Z" fill="#2DD06E"/>
<path d="M167.75 121.605L162.406 124.423L155.567 125.789L148.273 143.093L149.184 155.387C149.184 155.387 141.434 169.503 140.522 177.244C140.522 177.244 141.434 189.084 156.479 188.628L166.509 160.851C166.509 160.851 170.613 139.905 166.509 133.985C166.509 133.985 169.447 122.886 167.75 121.605Z" fill="#2F2E41"/>
<path d="M158.302 125.789L156.826 125.538L155.567 125.789C155.567 125.789 152.375 126.244 148.728 129.432C145.081 132.619 132.771 142.637 131.859 145.369C130.947 148.102 131.403 152.655 132.771 155.387C134.139 158.119 136.874 161.762 136.874 161.762L138.242 164.95L145.993 162.673C145.993 162.673 140.978 153.111 141.433 149.012L150.552 141.727L158.302 125.789Z" fill="#2F2E41"/>
<path d="M177.858 123.664L184.746 132.164L188.393 136.717L183.834 152.2L181.555 165.405C181.555 165.405 187.026 186.351 182.466 192.726C182.466 192.726 179.731 195.914 178.819 192.271C177.907 188.628 177.907 171.325 177.907 171.325C177.907 171.325 174.26 148.557 176.084 142.637C177.907 136.717 175.986 124.727 177.858 123.664Z" fill="#2F2E41"/>
<path d="M184.29 189.539V194.092C184.29 194.092 183.378 209.119 187.938 207.298C192.497 205.476 189.305 194.092 189.305 194.092L188.849 189.083L184.29 189.539Z" fill="#FBBEBE"/>
<path d="M162.044 112.841C165.512 110.335 168.319 107.448 170.175 104.014C170.175 104.014 176.539 111.076 180.428 111.429C184.317 111.782 180.782 102.955 180.782 102.955L173.711 101.189L166.994 101.895L161.69 105.426L162.044 112.841Z" fill="#2F2E41"/>
<path d="M184.746 135.351L188.393 136.717L188.849 141.271L190.673 169.048L189.761 189.994L182.922 190.45L180.643 167.226L179.731 141.726L184.746 135.351Z" fill="#2F2E41"/>
<path d="M104.127 161.396H48.709V166.897H104.127V161.396Z" fill="#2DD06E"/>
<path d="M104.127 174.354H48.709V176.437H104.127V174.354Z" fill="#E6E6E6"/>
<path d="M104.127 180.712H48.709V182.796H104.127V180.712Z" fill="#E6E6E6"/>
<path d="M77.3434 187.152H48.709V189.235H77.3434V187.152Z" fill="#E6E6E6"/>
<path d="M104.127 193.706H48.709V195.789H104.127V193.706Z" fill="#E6E6E6"/>
<path d="M104.127 200.259H48.709V202.343H104.127V200.259Z" fill="#E6E6E6"/>
<path d="M76.3845 206.813H48.709V208.896H76.3845V206.813Z" fill="#E6E6E6"/>
<path d="M104.127 213.367H48.709V215.451H104.127V213.367Z" fill="#E6E6E6"/>
<path d="M104.127 219.921H48.709V222.004H104.127V219.921Z" fill="#E6E6E6"/>
<path d="M104.193 227.959H86.6929V233.706H104.193V227.959Z" fill="#2DD06E"/>
</svg>
